Coordinates
version=1
nRows=24
nColumns=24
inDegrees=yes

Units are S.I. units (second, meters, Newtons, ...)
Angles are in degrees.

endheader
time	pelvis_tilt	pelvis_list	pelvis_rotation	pelvis_tx	pelvis_ty	pelvis_tz	hip_flexion_r	hip_adduction_r	hip_rotation_r	knee_angle_r	ankle_angle_r	subtalar_angle_r	mtp_angle_r	hip_flexion_l	hip_adduction_l	hip_rotation_l	knee_angle_l	ankle_angle_l	subtalar_angle_l	mtp_angle_l	lumbar_extension	lumbar_bending	lumbar_rotation
      0.45400000	      0.00094505	      4.93388506	      3.04502323	     -0.78427762	      0.97997236	      0.29160470	     27.13171304	     -3.57052931	     -2.04727682	    -13.65889371	      9.43022586	     -6.58758163	      0.21170469	    -15.67464394	      8.91152126	      3.21898610	     -6.59184853	     11.53789963	     -2.68937122	      0.16250956	     -1.42249009	     -3.16455857	     -1.33362699
      0.45816667	     -0.08140807	      4.95722357	      3.09834430	     -0.77821943	      0.97918764	      0.29176852	     27.08314920	     -3.53124725	     -2.12398514	    -13.63218001	      9.27672127	     -6.44565090	      0.27556839	    -15.51517457	      8.88497338	      3.01638797	     -7.47178519	     11.70867960	     -2.26145639	      0.12712316	     -1.27251098	     -3.19477350	     -1.36770786
      0.46233333	     -0.12676094	      4.95423322	      3.13798458	     -0.77210108	      0.97848887	      0.29194824	     26.98306507	     -3.45768269	     -2.17880047	    -13.65362893	      9.08126538	     -6.36242524	      0.35896614	    -15.36231247	      8.82777642	      2.76520064	     -8.41783092	     11.91058981	     -1.79196303	      0.12309448	     -1.15574583	     -3.18437855	     -1.42868694
      0.46650000	     -0.16359546	      4.94929364	      3.15155816	     -0.76595047	      0.97781700	      0.29217522	     26.88841910	     -3.36999958	     -2.20316688	    -13.76451985	      8.88539571	     -6.33850317	      0.48736027	    -15.19014112	      8.76855421	      2.44911785	     -9.40820970	     12.07115534	     -1.31143701	      0.15515728	     -1.04442032	     -3.17610115	     -1.47673045
      0.47066667	     -0.21760495	      4.92797552	      3.19203107	     -0.75977523	      0.97717720	      0.29237836	     26.78289031	     -3.27451426	     -2.20795175	    -13.87250002	      8.56409590	     -6.31313666	      0.60485911	    -14.97936372	      8.68848327	      2.23151392	    -10.43713655	     12.16614127	     -0.91527922	      0.21728242	     -0.91270821	     -3.16096648	     -1.50605337
      0.47483333	     -0.27269119	      4.91395841	      3.21579849	     -0.75356938	      0.97656687	      0.29259475	     26.68750194	     -3.18237159	     -2.18800396	    -14.04972107	      8.24034666	     -6.35923032	      0.74666430	    -14.72841064	      8.61691119	      1.96329019	    -11.53774910	     12.22842562	     -0.51139585	      0.32123744	     -0.76679013	     -3.13613425	     -1.53927933
      0.47900000	     -0.30588087	      4.86556651	      3.20998838	     -0.74733441	      0.97598526	      0.29286398	     26.58565158	     -3.04198576	     -2.14166470	    -14.30271268	      7.89404667	     -6.49740667	      0.95065082	    -14.47370605	      8.50695338	      1.63974991	    -12.68280661	     12.25752610	     -0.07828693	      0.50715045	     -0.65687582	     -3.06319806	     -1.56468857
      0.48316667	     -0.35530477	      4.83080579	      3.21633515	     -0.74109657	      0.97544467	      0.29312962	     26.48794636	     -2.92041296	     -2.06856754	    -14.56310105	      7.47911174	     -6.63323307	      1.16641546	    -14.17604421	      8.41161171	      1.39332787	    -13.86310722	     12.20390057	      0.25469753	      0.74828726	     -0.51928890	     -3.01418031	     -1.56973711
      0.48733333	     -0.40142786	      4.77863541	      3.21556455	     -0.73483871	      0.97493940	      0.29340866	     26.38705087	     -2.77877115	     -1.96998003	    -14.85608454	      7.02961363	     -6.83686542	      1.40331934	    -13.85621739	      8.29797148	      1.16182194	    -15.08915373	     12.08623263	      0.55804809	      1.06180051	     -0.38432388	     -2.94436474	     -1.56653100
      0.49150000	     -0.43698132	      4.68769419	      3.22430715	     -0.72853784	      0.97450688	      0.29371145	     26.24921092	     -2.59667024	     -1.85317339	    -15.12873866	      6.57368568	     -7.15498226	      1.81095665	    -13.50875863	      8.12854956	      0.90656591	    -16.36934117	     11.85033399	      0.88852469	      1.69455157	     -0.24911986	     -2.82304180	     -1.53801811
      0.49566667	     -0.50813589	      4.65758114	      3.20087394	     -0.72232503	      0.97400751	      0.29401579	     26.21970422	     -2.47898399	     -1.72491795	    -15.54512105	      6.09824293	     -7.33695165	      2.03322464	    -13.08754450	      8.04987309	      0.72629315	    -17.70875252	     11.63564067	      1.03376188	      2.11180891	     -0.09402037	     -2.78612487	     -1.51735310
      0.49983333	     -0.53167795	      4.57209103	      3.19142945	     -0.71601631	      0.97365567	      0.29428505	     26.11136841	     -2.32069480	     -1.67399173	    -15.93263271	      5.56353138	     -7.42621687	      2.10491015	    -12.71705439	      7.91209031	      0.62310268	    -19.02773335	     11.17160954	      1.05390253	      2.27998342	      0.01595122	     -2.65951371	     -1.47625868
      0.50400000	     -0.57387022	      4.48953120	      3.15583129	     -0.70978966	      0.97327691	      0.29469892	     26.01737112	     -2.12715374	     -1.41993398	    -16.31048436	      5.10110545	     -7.99033885	      4.29259585	    -12.22513564	      7.74346960	      0.31591314	    -20.50737714	     10.70161631	      1.28044920	      8.04601499	      0.15238032	     -2.56738560	     -1.40807547
      0.50816667	     -0.63264679	      4.37884946	      3.14803350	     -0.70355343	      0.97291766	      0.29502702	     25.96399541	     -1.94043529	     -1.30882277	    -16.74802527	      4.64169802	     -8.14773322	      4.29473672	    -11.69106457	      7.56146716	      0.15978042	    -22.03139902	     10.22438349	      1.40817965	      8.09962931	      0.30603197	     -2.42777182	     -1.35912137
      0.51233333	     -0.70519535	      4.26499682	      3.12083484	     -0.69735921	      0.97254907	      0.29541311	     25.93758187	     -1.73564308	     -1.12319764	    -17.21519740	      4.25572855	     -8.49521407	      4.29433554	    -11.08316420	      7.36564324	     -0.06154240	    -23.64507303	      9.67514868	      1.58443908	      8.22163789	      0.47767349	     -2.28307737	     -1.29259391
      0.51650000	     -0.73024960	      4.11907806	      3.06772346	     -0.69119340	      0.97224009	      0.29586355	     25.88377268	     -1.48426125	     -0.91342628	    -17.73776587	      3.91728700	     -9.01092540	      4.28606004	    -10.47850710	      7.12366228	     -0.32963767	    -25.32038519	      9.09453132	      1.79033822	      8.49286135	      0.57628567	     -2.09924303	     -1.20872856
      0.52066667	     -0.74118324	      3.93403351	      3.04174695	     -0.68502361	      0.97203108	      0.29631402	     25.77655265	     -1.19540739	     -0.68696890	    -18.19454085	      3.65796168	     -9.56533193	      4.25498087	     -9.84920847	      6.82623166	     -0.55691742	    -27.03929199	      8.34386837	      1.97716188	      9.03834003	      0.66973688	     -1.87441072	     -1.10896574
      0.52483333	     -0.77765506	      3.77467043	      3.00039162	     -0.67888989	      0.97176786	      0.29671880	     25.73826191	     -0.95434423	     -0.54492596	    -18.72062202	      3.37458195	     -9.67914563	      4.23470363	     -9.15369155	      6.57129106	     -0.75528751	    -28.80818148	      7.51536813	      2.00780777	      9.27644136	      0.79665055	     -1.67655635	     -1.03442586
      0.52900000	     -0.76543853	      3.54984650	      2.95243282	     -0.67279838	      0.97157636	      0.29721152	     25.64933264	     -0.62312649	     -0.34952221	    -19.26478405	      3.20129507	    -10.20533193	      3.62343614	     -8.46575032	      6.21642022	     -1.00500532	    -30.62580174	      6.59744407	      2.05978017	     14.82962517	      0.84549646	     -1.39867085	     -0.92418915
      0.53316667	     -0.76396463	      3.34060651	      2.89664256	     -0.66674638	      0.97137035	      0.29768793	     25.59652356	     -0.32089891	     -0.20482998	    -19.85375021	      3.10612708	    -10.45157601	      3.60640904	     -7.72359516	      5.87812703	     -1.24666118	    -32.50122585	      5.65821592	      2.17936649	     14.88535363	      0.91146173	     -1.14703185	     -0.83373723
      0.53733333	     -0.74247632	      3.08825329	      2.84862740	     -0.66072102	      0.97122382	      0.29817646	     25.50227186	      0.02991989	     -0.04698513	    -20.40527041	      3.05566775	    -10.79397683	      3.57144868	     -6.96699094	      5.48257308	     -1.47325016	    -34.41480564	      4.64560955	      2.26222059	     14.99634936	      0.95322008	     -0.84329548	     -0.72860289
      0.54150000	     -0.72243805	      2.82348100	      2.80184937	     -0.65474169	      0.97108672	      0.29866347	     25.41100040	      0.39115685	      0.09683442	    -20.95936134	      3.06920354	    -11.11997724	      3.51914750	     -6.17587679	      5.06901956	     -1.68136787	    -36.35689019	      3.57282472	      2.30985793	     15.15047861	      0.99263755	     -0.52301342	     -0.62286390
      0.54566667	     -0.67341070	      2.53585197	      2.74957184	     -0.64878763	      0.97100039	      0.29916372	     25.28057838	      0.77773373	      0.22686744	    -21.49842740	      3.14406069	    -11.40308924	      3.45416535	     -5.38861818	      4.62020576	     -1.89237795	    -38.31515569	      2.43798000	      2.32716218	     15.32296819	      0.99489838	     -0.17782833	     -0.51471347
      0.54983333	     -0.61340896	      2.23687929	      2.69824245	     -0.64288790	      0.97093058	      0.29966060	     25.13838186	      1.17247337	      0.33261051	    -22.03610693	      3.27852132	    -11.63865440	      3.38218649	     -4.58807759	      4.15311287	     -2.08681614	    -40.28451480	      1.26203087	      2.31476165	     15.48938496	      0.97874234	      0.17970656	     -0.40591360
